<?xml version="1.0" encoding="UTF-8"?>
<svg version="1.1" xmlns="http://www.w3.org/2000/svg" width="1000" height="1000">
<path d="M0 0 C0 0.66 0 1.32 0 2 C1.32 2 2.64 2 4 2 C4 2.66 4 3.32 4 4 C6.65228812 5.07525194 9.28368454 6.09456151 12 7 C12 7.66 12 8.32 12 9 C13.65 9.33 15.3 9.66 17 10 C17 10.66 17 11.32 17 12 C17.99 12 18.98 12 20 12 C20 12.66 20 13.32 20 14 C21.65 14.33 23.3 14.66 25 15 C25 15.66 25 16.32 25 17 C25.99 17 26.98 17 28 17 C28 17.66 28 18.32 28 19 C29.65 19.33 31.3 19.66 33 20 C33 20.66 33 21.32 33 22 C33.66 22 34.32 22 35 22 C35 22.66 35 23.32 35 24 C35.94875 24.0825 36.8975 24.165 37.875 24.25 C38.90625 24.4975 39.9375 24.745 41 25 C41.69937532 26.31647119 42.36729133 27.65022151 43 29 C45.39719432 29.67958603 45.39719432 29.67958603 48 30 C50.3125 31.0625 50.3125 31.0625 52 32 C52 32.66 52 33.32 52 34 C53.65 34.33 55.3 34.66 57 35 C57 35.66 57 36.32 57 37 C57.99 37 58.98 37 60 37 C60 37.66 60 38.32 60 39 C61.65 39.33 63.3 39.66 65 40 C65 40.66 65 41.32 65 42 C66.1446875 42.185625 66.1446875 42.185625 67.3125 42.375 C70 43 70 43 73 45 C73 45.66 73 46.32 73 47 C74.65 47.33 76.3 47.66 78 48 C78 48.66 78 49.32 78 50 C78.99 50 79.98 50 81 50 C81 50.66 81 51.32 81 52 C82.65 52.33 84.3 52.66 86 53 C86 53.66 86 54.32 86 55 C87.32 55 88.64 55 90 55 C90 55.66 90 56.32 90 57 C91.65 57.33 93.3 57.66 95 58 C95 58.66 95 59.32 95 60 C95.99 60 96.98 60 98 60 C98 60.66 98 61.32 98 62 C99.65 62.33 101.3 62.66 103 63 C103 63.66 103 64.32 103 65 C103.99 65 104.98 65 106 65 C106 65.66 106 66.32 106 67 C107.65 67.33 109.3 67.66 111 68 C111 68.66 111 69.32 111 70 C111.99 70 112.98 70 114 70 C114 70.66 114 71.32 114 72 C116.475 72.495 116.475 72.495 119 73 C119 73.66 119 74.32 119 75 C120.32 75 121.64 75 123 75 C123.33 75.66 123.66 76.32 124 77 C126.02463255 77.65213292 126.02463255 77.65213292 128 78 C128.33 79.32 128.66 80.64 129 82 C131.31 82.33 133.62 82.66 136 83 C136 83.66 136 84.32 136 85 C136.66 85 137.32 85 138 85 C138 85.66 138 86.32 138 87 C139.98 87.33 141.96 87.66 144 88 C144 88.66 144 89.32 144 90 C146.475 90.495 146.475 90.495 149 91 C149 91.66 149 92.32 149 93 C149.66 93 150.32 93 151 93 C151 93.66 151 94.32 151 95 C151.94875 95.0825 152.8975 95.165 153.875 95.25 C155.421875 95.62125 155.421875 95.62125 157 96 C157.66666667 97.33333333 158.33333333 98.66666667 159 100 C159.99 100.165 160.98 100.33 162 100.5 C162.99 100.665 163.98 100.83 165 101 C165.69937532 102.31647119 166.36729133 103.65022151 167 105 C169.55519921 105.81171228 169.55519921 105.81171228 172 106 C172 106.66 172 107.32 172 108 C173.32 108 174.64 108 176 108 C176 108.66 176 109.32 176 110 C178.475 110.495 178.475 110.495 181 111 C181 111.66 181 112.32 181 113 C181.99 113 182.98 113 184 113 C184 113.66 184 114.32 184 115 C186.475 115.495 186.475 115.495 189 116 C189 116.66 189 117.32 189 118 C189.99 118 190.98 118 192 118 C192 118.66 192 119.32 192 120 C194.475 120.495 194.475 120.495 197 121 C197 121.66 197 122.32 197 123 C197.99 123 198.98 123 200 123 C200 123.66 200 124.32 200 125 C200.825 125.2475 201.65 125.495 202.5 125.75 C213 129.5 213 129.5 216 134 C219.05429073 135.21284876 219.05429073 135.21284876 222 136 C222 136.66 222 137.32 222 138 C224.65228812 139.07525194 227.28368454 140.09456151 230 141 C230 141.66 230 142.32 230 143 C231.65 143.33 233.3 143.66 235 144 C235 144.66 235 145.32 235 146 C235.53625 146.0825 236.0725 146.165 236.625 146.25 C239.87340691 147.27581271 242.28751859 148.96563894 245 151 C245 151.66 245 152.32 245 153 C245.928125 153.12375 246.85625 153.2475 247.8125 153.375 C251 154 251 154 254 156 C254 156.66 254 157.32 254 158 C255.65 158.33 257.3 158.66 259 159 C259 159.66 259 160.32 259 161 C259.99 161 260.98 161 262 161 C262 161.66 262 162.32 262 163 C263.65 163.33 265.3 163.66 267 164 C267 164.66 267 165.32 267 166 C267.99 166 268.98 166 270 166 C270 166.66 270 167.32 270 168 C271.65 168.33 273.3 168.66 275 169 C275 169.66 275 170.32 275 171 C275.99 171 276.98 171 278 171 C278 171.66 278 172.32 278 173 C279.65 173.33 281.3 173.66 283 174 C283 174.66 283 175.32 283 176 C284.32 176 285.64 176 287 176 C287 176.66 287 177.32 287 178 C288.65 178.33 290.3 178.66 292 179 C292 179.66 292 180.32 292 181 C292.99 181 293.98 181 295 181 C295 181.66 295 182.32 295 183 C296.65 183.33 298.3 183.66 300 184 C300 184.66 300 185.32 300 186 C302.65228812 187.07525194 305.28368454 188.09456151 308 189 C308 189.66 308 190.32 308 191 C309.65 191.33 311.3 191.66 313 192 C313 192.66 313 193.32 313 194 C313.99 194 314.98 194 316 194 C316 194.66 316 195.32 316 196 C317.65 196.33 319.3 196.66 321 197 C321 197.66 321 198.32 321 199 C321.8353125 199.185625 321.8353125 199.185625 322.6875 199.375 C325.22114364 200.05976855 327.57921032 200.99133763 330 202 C330 202.66 330 203.32 330 204 C332.65228812 205.07525194 335.28368454 206.09456151 338 207 C338 207.66 338 208.32 338 209 C338.66 209 339.32 209 340 209 C340 209.66 340 210.32 340 211 C341.98 211.33 343.96 211.66 346 212 C346 212.66 346 213.32 346 214 C346.66 214 347.32 214 348 214 C348 214.66 348 215.32 348 216 C349.98 216.33 351.96 216.66 354 217 C354 217.66 354 218.32 354 219 C354.66 219 355.32 219 356 219 C356 219.66 356 220.32 356 221 C357.65 221.33 359.3 221.66 361 222 C361 222.66 361 223.32 361 224 C361.99 224 362.98 224 364 224 C364 224.66 364 225.32 364 226 C365.65 226.33 367.3 226.66 369 227 C369 227.66 369 228.32 369 229 C370.32 229 371.64 229 373 229 C373 229.66 373 230.32 373 231 C374.65 231.33 376.3 231.66 378 232 C378 232.66 378 233.32 378 234 C378.86625 234.185625 378.86625 234.185625 379.75 234.375 C382.02335767 235.00648824 383.9253529 235.88858191 386 237 C386 237.66 386 238.32 386 239 C386.78375 239.309375 387.5675 239.61875 388.375 239.9375 C391 241 391 241 393 242 C393.12786449 292.79512029 393.2553039 343.59024162 393.38218227 394.38536438 C393.39720051 400.39769736 393.41222223 406.41003032 393.42724609 412.42236328 C393.43023671 413.6191871 393.43322732 414.81601092 393.43630856 416.04910213 C393.48458484 435.36563196 393.53314215 454.68216108 393.58180541 473.99868995 C393.63182324 493.85542164 393.68153422 513.71215408 393.73096704 533.56888723 C393.76141885 545.79730406 393.79210304 558.02572026 393.82309544 570.25413573 C393.84439583 578.6675504 393.86539512 587.0809658 393.88616979 595.49438179 C393.89812013 600.33063298 393.91019149 605.16688379 393.92262459 610.00313377 C393.92726877 611.81663893 393.9319069 613.6301441 393.9365387 615.44364929 C393.93878523 616.32215904 393.94103177 617.20066878 393.94334638 618.10580003 C393.95999031 624.7376507 393.97272476 631.36950438 393.98421299 638.00136578 C393.99307879 642.69109093 394.00908739 647.38072914 394.03068319 652.07041249 C394.04367997 655.04897665 394.05272501 658.02754486 394.06098932 661.00612551 C394.06798903 663.02990142 394.08019047 665.05365729 394.09258318 667.07740736 C394.10558956 672.82396316 394.06544394 678.34463857 393 684 C392.34 684 391.68 684 391 684 C391 684.66 391 685.32 391 686 C389.35 686.33 387.7 686.66 386 687 C386 687.66 386 688.32 386 689 C385.01 689 384.02 689 383 689 C383 689.66 383 690.32 383 691 C381.35 691.33 379.7 691.66 378 692 C378 692.66 378 693.32 378 694 C376.68 694 375.36 694 374 694 C373.67 694.99 373.34 695.98 373 697 C371.68 697 370.36 697 369 697 C369 697.66 369 698.32 369 699 C368.01 699 367.02 699 366 699 C366 699.66 366 700.32 366 701 C364.35 701.33 362.7 701.66 361 702 C361 702.66 361 703.32 361 704 C358.09451118 706.04169485 356.59857954 707 353 707 C353 707.66 353 708.32 353 709 C351.35 709.33 349.7 709.66 348 710 C348 710.66 348 711.32 348 712 C347.34 712 346.68 712 346 712 C346 712.66 346 713.32 346 714 C344.02 714.33 342.04 714.66 340 715 C340 715.66 340 716.32 340 717 C339.34 717 338.68 717 338 717 C338 717.66 338 718.32 338 719 C336.35 719.33 334.7 719.66 333 720 C333 720.66 333 721.32 333 722 C332.01 722 331.02 722 330 722 C330 722.66 330 723.32 330 724 C329.0409375 724.185625 329.0409375 724.185625 328.0625 724.375 C327.381875 724.58125 326.70125 724.7875 326 725 C325.67 725.66 325.34 726.32 325 727 C323.68 727 322.36 727 321 727 C321 727.66 321 728.32 321 729 C319.35 729.33 317.7 729.66 316 730 C316 730.66 316 731.32 316 732 C315.01 732 314.02 732 313 732 C313 732.66 313 733.32 313 734 C311.35 734.33 309.7 734.66 308 735 C308 735.66 308 736.32 308 737 C307.34 737 306.68 737 306 737 C306 737.66 306 738.32 306 739 C304.02 739.33 302.04 739.66 300 740 C300 740.66 300 741.32 300 742 C299.34 742 298.68 742 298 742 C298 742.66 298 743.32 298 744 C296.02 744.33 294.04 744.66 292 745 C292 745.66 292 746.32 292 747 C291.34 747 290.68 747 290 747 C290 747.66 290 748.32 290 749 C288.35 749.33 286.7 749.66 285 750 C285 750.66 285 751.32 285 752 C283.865625 752.45375 282.73125 752.9075 281.5625 753.375 C277.95278308 754.57095806 277.95278308 754.57095806 277 757 C275.66666667 757.33333333 274.33333333 757.66666667 273 758 C272.67 758.66 272.34 759.32 272 760 C270.68 760 269.36 760 268 760 C267.67 760.99 267.34 761.98 267 763 C265.68 763 264.36 763 263 763 C263 763.66 263 764.32 263 765 C262.01 765 261.02 765 260 765 C259.67 765.99 259.34 766.98 259 768 C257.68 768 256.36 768 255 768 C254.79375 768.598125 254.5875 769.19625 254.375 769.8125 C252.47304173 772.8383427 250.24699596 773.64708502 247 775 C246.34 775 245.68 775 245 775 C245 775.66 245 776.32 245 777 C243.35 777.33 241.7 777.66 240 778 C240 778.66 240 779.32 240 780 C239.01 780 238.02 780 237 780 C237 780.66 237 781.32 237 782 C235.35 782.33 233.7 782.66 232 783 C232 783.66 232 784.32 232 785 C231.01 785 230.02 785 229 785 C229 785.66 229 786.32 229 787 C227.35 787.33 225.7 787.66 224 788 C224 788.66 224 789.32 224 790 C222.68 790 221.36 790 220 790 C219.67 790.99 219.34 791.98 219 793 C216.39757586 794.64820195 215.13751221 795 212 795 C211.67 795.99 211.34 796.98 211 798 C209.68 798 208.36 798 207 798 C206.7525 798.61359375 206.505 799.2271875 206.25 799.859375 C204.76937747 802.39494109 203.63432463 803.02968785 201 804.25 C200.29875 804.58515625 199.5975 804.9203125 198.875 805.265625 C197 806 197 806 195 806 C195 806.66 195 807.32 195 808 C194.01 808 193.02 808 192 808 C192 808.66 192 809.32 192 810 C190.35 810.33 188.7 810.66 187 811 C187 811.66 187 812.32 187 813 C186.01 813 185.02 813 184 813 C184 813.66 184 814.32 184 815 C182.35 815.33 180.7 815.66 179 816 C179 816.66 179 817.32 179 818 C178.01 818 177.02 818 176 818 C176 818.66 176 819.32 176 820 C174.35 820.33 172.7 820.66 171 821 C171 821.66 171 822.32 171 823 C168.09451118 825.04169485 166.59857954 826 163 826 C163 826.66 163 827.32 163 828 C162.34 828 161.68 828 161 828 C161 828.66 161 829.32 161 830 C159.329375 830.12375 159.329375 830.12375 157.625 830.25 C156.42875 830.4975 155.2325 830.745 154 831 C152.81669817 832.86644906 152.81669817 832.86644906 152 835 C149.06026776 837.11057699 147.65351863 838 144 838 C144 838.66 144 839.32 144 840 C142.35 840.33 140.7 840.66 139 841 C139 841.66 139 842.32 139 843 C138.01 843 137.02 843 136 843 C136 843.66 136 844.32 136 845 C134.35 845.33 132.7 845.66 131 846 C131 846.66 131 847.32 131 848 C128.09451118 850.04169485 126.59857954 851 123 851 C123 851.66 123 852.32 123 853 C121.35 853.33 119.7 853.66 118 854 C118 854.66 118 855.32 118 856 C117.01 856 116.02 856 115 856 C115 856.66 115 857.32 115 858 C113.35 858.33 111.7 858.66 110 859 C110 859.66 110 860.32 110 861 C106.63316085 863.43160605 105.26649636 864 101 864 C100.5978125 864.9590625 100.5978125 864.9590625 100.1875 865.9375 C99 868 99 868 96 869 C95.67 869.66 95.34 870.32 95 871 C93.68 871 92.36 871 91 871 C91 871.66 91 872.32 91 873 C89.35 873.33 87.7 873.66 86 874 C86 874.66 86 875.32 86 876 C85.01 876 84.02 876 83 876 C83 876.66 83 877.32 83 878 C81.35 878.33 79.7 878.66 78 879 C78 879.66 78 880.32 78 881 C77.01 881 76.02 881 75 881 C75 881.66 75 882.32 75 883 C73.35 883.33 71.7 883.66 70 884 C70 884.66 70 885.32 70 886 C69.34 886 68.68 886 68 886 C68 886.66 68 887.32 68 888 C63.72886302 890.18326108 59.49797113 892.31326082 55 894 C55 894.66 55 895.32 55 896 C53.865625 896.45375 52.73125 896.9075 51.5625 897.375 C47.95278308 898.57095806 47.95278308 898.57095806 47 901 C45.66666667 901.33333333 44.33333333 901.66666667 43 902 C42.67 902.66 42.34 903.32 42 904 C40.68 904 39.36 904 38 904 C37.67 904.99 37.34 905.98 37 907 C35.68 907 34.36 907 33 907 C33 907.66 33 908.32 33 909 C32.01 909 31.02 909 30 909 C30 909.66 30 910.32 30 911 C28.35 911.33 26.7 911.66 25 912 C25 912.66 25 913.32 25 914 C24.01 914 23.02 914 22 914 C22 914.66 22 915.32 22 916 C20.35 916.33 18.7 916.66 17 917 C17 917.66 17 918.32 17 919 C16.34 919 15.68 919 15 919 C15 919.66 15 920.32 15 921 C13.02 921.33 11.04 921.66 9 922 C9 922.66 9 923.32 9 924 C8.34 924 7.68 924 7 924 C7 924.66 7 925.32 7 926 C4.69 926.33 2.38 926.66 0 927 C0 927.66 0 928.32 0 929 C-5.75 927.125 -5.75 927.125 -8 926 C-8 925.34 -8 924.68 -8 924 C-8.99 924 -9.98 924 -11 924 C-11 923.34 -11 922.68 -11 922 C-12.65 921.67 -14.3 921.34 -16 921 C-16 920.34 -16 919.68 -16 919 C-16.5775 918.87625 -17.155 918.7525 -17.75 918.625 C-20.02335767 917.99351176 -21.9253529 917.11141809 -24 916 C-24 915.34 -24 914.68 -24 914 C-25.32 914 -26.64 914 -28 914 C-28.33 913.34 -28.66 912.68 -29 912 C-31.02463255 911.34786708 -31.02463255 911.34786708 -33 911 C-33.33 909.68 -33.66 908.36 -34 907 C-35.65 906.67 -37.3 906.34 -39 906 C-39 905.34 -39 904.68 -39 904 C-40.32 904 -41.64 904 -43 904 C-43 903.34 -43 902.68 -43 902 C-44.65 901.67 -46.3 901.34 -48 901 C-48 900.34 -48 899.68 -48 899 C-48.5775 898.87625 -49.155 898.7525 -49.75 898.625 C-52.02335767 897.99351176 -53.9253529 897.11141809 -56 896 C-56 895.34 -56 894.68 -56 894 C-57.65 893.67 -59.3 893.34 -61 893 C-61 892.34 -61 891.68 -61 891 C-61.99 891 -62.98 891 -64 891 C-64 890.34 -64 889.68 -64 889 C-65.65 888.67 -67.3 888.34 -69 888 C-69 887.34 -69 886.68 -69 886 C-69.99 886 -70.98 886 -72 886 C-72 885.34 -72 884.68 -72 884 C-73.65 883.67 -75.3 883.34 -77 883 C-77 882.34 -77 881.68 -77 881 C-77.66 881 -78.32 881 -79 881 C-79 880.34 -79 879.68 -79 879 C-79.94875 878.9175 -80.8975 878.835 -81.875 878.75 C-82.90625 878.5025 -83.9375 878.255 -85 878 C-85.69937532 876.68352881 -86.36729133 875.34977849 -87 874 C-89.55519921 873.18828772 -89.55519921 873.18828772 -92 873 C-92 872.34 -92 871.68 -92 871 C-93.32 871 -94.64 871 -96 871 C-96 870.34 -96 869.68 -96 869 C-97.65 868.67 -99.3 868.34 -101 868 C-101 867.34 -101 866.68 -101 866 C-101.99 866 -102.98 866 -104 866 C-104 865.34 -104 864.68 -104 864 C-105.65 863.67 -107.3 863.34 -109 863 C-109 862.34 -109 861.68 -109 861 C-109.99 861 -110.98 861 -112 861 C-112 860.34 -112 859.68 -112 859 C-113.65 858.67 -115.3 858.34 -117 858 C-117 857.34 -117 856.68 -117 856 C-117.99 856 -118.98 856 -120 856 C-120 855.34 -120 854.68 -120 854 C-121.65 853.67 -123.3 853.34 -125 853 C-125 852.34 -125 851.68 -125 851 C-126.65 850.67 -128.3 850.34 -130 850 C-130 849.34 -130 848.68 -130 848 C-131.32 848 -132.64 848 -134 848 C-134.33 847.34 -134.66 846.68 -135 846 C-135.845625 845.505 -136.69125 845.01 -137.5625 844.5 C-138.7690625 843.7575 -138.7690625 843.7575 -140 843 C-140 842.34 -140 841.68 -140 841 C-140.928125 840.87625 -141.85625 840.7525 -142.8125 840.625 C-146 840 -146 840 -149 838 C-149 837.34 -149 836.68 -149 836 C-150.65 835.67 -152.3 835.34 -154 835 C-154 834.34 -154 833.68 -154 833 C-154.99 833 -155.98 833 -157 833 C-157 832.34 -157 831.68 -157 831 C-158.65 830.67 -160.3 830.34 -162 830 C-162 829.34 -162 828.68 -162 828 C-162.99 828 -163.98 828 -165 828 C-165 827.34 -165 826.68 -165 826 C-166.65 825.67 -168.3 825.34 -170 825 C-170 824.34 -170 823.68 -170 823 C-170.99 823 -171.98 823 -173 823 C-173 822.34 -173 821.68 -173 821 C-174.65 820.67 -176.3 820.34 -178 820 C-178 819.34 -178 818.68 -178 818 C-179.32 818 -180.64 818 -182 818 C-182.33 817.34 -182.66 816.68 -183 816 C-185.02463255 815.34786708 -185.02463255 815.34786708 -187 815 C-187 814.34 -187 813.68 -187 813 C-189.65228812 811.92474806 -192.28368454 810.90543849 -195 810 C-195 809.34 -195 808.68 -195 808 C-195.66 808 -196.32 808 -197 808 C-197 807.34 -197 806.68 -197 806 C-198.98 805.67 -200.96 805.34 -203 805 C-203 804.34 -203 803.68 -203 803 C-203.78375 802.690625 -204.5675 802.38125 -205.375 802.0625 C-208 801 -208 801 -210 800 C-210 799.34 -210 798.68 -210 798 C-210.763125 797.87625 -211.52625 797.7525 -212.3125 797.625 C-215 797 -215 797 -218 795 C-218 794.34 -218 793.68 -218 793 C-219.65 792.67 -221.3 792.34 -223 792 C-223 791.34 -223 790.68 -223 790 C-223.99 790 -224.98 790 -226 790 C-226 789.34 -226 788.68 -226 788 C-227.65 787.67 -229.3 787.34 -231 787 C-231 786.34 -231 785.68 -231 785 C-232.32 785 -233.64 785 -235 785 C-235.33 784.34 -235.66 783.68 -236 783 C-238.02463255 782.34786708 -238.02463255 782.34786708 -240 782 C-240.33 780.68 -240.66 779.36 -241 778 C-243.31 777.67 -245.62 777.34 -248 777 C-248 776.34 -248 775.68 -248 775 C-248.66 775 -249.32 775 -250 775 C-250 774.34 -250 773.68 -250 773 C-251.98 772.67 -253.96 772.34 -256 772 C-256 771.34 -256 770.68 -256 770 C-256.66 770 -257.32 770 -258 770 C-258 769.34 -258 768.68 -258 768 C-259.65 767.67 -261.3 767.34 -263 767 C-263 766.34 -263 765.68 -263 765 C-263.99 765 -264.98 765 -266 765 C-266 764.34 -266 763.68 -266 763 C-267.65 762.67 -269.3 762.34 -271 762 C-271 761.34 -271 760.68 -271 760 C-271.99 760 -272.98 760 -274 760 C-274 759.34 -274 758.68 -274 758 C-275.65 757.67 -277.3 757.34 -279 757 C-279 756.34 -279 755.68 -279 755 C-280.65 754.67 -282.3 754.34 -284 754 C-284 753.34 -284 752.68 -284 752 C-285.32 752 -286.64 752 -288 752 C-288.33 751.34 -288.66 750.68 -289 750 C-291.30965848 748.94647157 -293.6429774 747.94280904 -296 747 C-296 746.34 -296 745.68 -296 745 C-297.65 744.67 -299.3 744.34 -301 744 C-301 743.34 -301 742.68 -301 742 C-301.99 742 -302.98 742 -304 742 C-304 741.34 -304 740.68 -304 740 C-305.65 739.67 -307.3 739.34 -309 739 C-309 738.34 -309 737.68 -309 737 C-309.66 737 -310.32 737 -311 737 C-311 736.34 -311 735.68 -311 735 C-312.98 734.67 -314.96 734.34 -317 734 C-317 733.34 -317 732.68 -317 732 C-317.66 732 -318.32 732 -319 732 C-319 731.34 -319 730.68 -319 730 C-319.94875 729.9175 -320.8975 729.835 -321.875 729.75 C-322.90625 729.5025 -323.9375 729.255 -325 729 C-325.69937532 727.68352881 -326.36729133 726.34977849 -327 725 C-329.55519921 724.18828772 -329.55519921 724.18828772 -332 724 C-332 723.34 -332 722.68 -332 722 C-333.32 722 -334.64 722 -336 722 C-336 721.34 -336 720.68 -336 720 C-337.65 719.67 -339.3 719.34 -341 719 C-341 718.34 -341 717.68 -341 717 C-341.99 717 -342.98 717 -344 717 C-344 716.34 -344 715.68 -344 715 C-345.65 714.67 -347.3 714.34 -349 714 C-349 713.34 -349 712.68 -349 712 C-349.99 712 -350.98 712 -352 712 C-352 711.34 -352 710.68 -352 710 C-353.65 709.67 -355.3 709.34 -357 709 C-357 708.34 -357 707.68 -357 707 C-358.65 706.67 -360.3 706.34 -362 706 C-362 705.34 -362 704.68 -362 704 C-362.99 704 -363.98 704 -365 704 C-365 703.34 -365 702.68 -365 702 C-366.65 701.67 -368.3 701.34 -370 701 C-370 700.34 -370 699.68 -370 699 C-371.32 699 -372.64 699 -374 699 C-374.33 698.34 -374.66 697.68 -375 697 C-377.30965848 695.94647157 -379.6429774 694.94280904 -382 694 C-382 693.34 -382 692.68 -382 692 C-382.78375 691.690625 -383.5675 691.38125 -384.375 691.0625 C-387 690 -387 690 -389 689 C-389 688.34 -389 687.68 -389 687 C-389.804375 686.87625 -390.60875 686.7525 -391.4375 686.625 C-392.283125 686.41875 -393.12875 686.2125 -394 686 C-395.47060213 683.05879574 -395.14547503 680.08952302 -395.14260101 676.8649931 C-395.14585203 676.11792222 -395.14910305 675.37085135 -395.15245259 674.60114196 C-395.16219694 672.07178842 -395.16475025 669.54247757 -395.1673584 667.0131073 C-395.17280185 665.19178163 -395.17866498 663.37045716 -395.18491411 661.54913408 C-395.200806 656.52381439 -395.21029372 651.49849962 -395.21867895 646.47316253 C-395.22666985 642.1679713 -395.23836304 637.86279337 -395.25009376 633.55761095 C-395.29204366 618.13608079 -395.31920678 602.71453501 -395.34375 587.29296875 C-395.34671235 585.46855638 -395.34671235 585.46855638 -395.34973454 583.6072872 C-395.38888467 559.47348938 -395.42260732 535.33968649 -395.44481659 511.20586681 C-395.44978619 505.89757975 -395.45483048 500.58929277 -395.45996094 495.28100586 C-395.46123161 493.96159669 -395.46250228 492.64218751 -395.46381146 491.28279624 C-395.48490142 469.89495384 -395.53419299 448.50726768 -395.59420508 427.11950263 C-395.65525911 405.18022597 -395.68999475 383.24102855 -395.6992898 361.30166799 C-395.70521041 348.97570319 -395.72305776 336.64999823 -395.77067566 324.32411766 C-395.81117963 313.82981354 -395.82819132 303.33581163 -395.81402284 292.84143277 C-395.80753477 287.48372182 -395.81255609 282.12665518 -395.84789658 276.76904297 C-395.8799671 271.86796587 -395.87999217 266.9679914 -395.85407954 262.06688754 C-395.85041394 260.29027168 -395.85869083 258.51358447 -395.87986106 256.73709097 C-395.90685394 254.32754635 -395.89098731 251.92198798 -395.86412811 249.51253033 C-395.88223136 248.81711641 -395.90033461 248.12170248 -395.91898644 247.40521541 C-395.84768277 244.53164573 -395.50837546 242.52960925 -393.48943049 240.4263371 C-390.48424623 238.16610741 -388.83589369 237 -385 237 C-385 236.34 -385 235.68 -385 235 C-383.35 234.67 -381.7 234.34 -380 234 C-380 233.34 -380 232.68 -380 232 C-378.35 231.67 -376.7 231.34 -375 231 C-375 230.34 -375 229.68 -375 229 C-374.01 229 -373.02 229 -372 229 C-372 228.34 -372 227.68 -372 227 C-370.35 226.67 -368.7 226.34 -367 226 C-367 225.34 -367 224.68 -367 224 C-366.01 224 -365.02 224 -364 224 C-364 223.34 -364 222.68 -364 222 C-362.35 221.67 -360.7 221.34 -359 221 C-359 220.34 -359 219.68 -359 219 C-356.09451118 216.95830515 -354.59857954 216 -351 216 C-351 215.34 -351 214.68 -351 214 C-347.63316085 211.56839395 -346.26649636 211 -342 211 C-341.79375 210.360625 -341.5875 209.72125 -341.375 209.0625 C-340 207 -340 207 -336.875 206.25 C-335.92625 206.1675 -334.9775 206.085 -334 206 C-334 205.34 -334 204.68 -334 204 C-333.34 204 -332.68 204 -332 204 C-332 203.34 -332 202.68 -332 202 C-330.35 201.67 -328.7 201.34 -327 201 C-327 200.34 -327 199.68 -327 199 C-326.01 199 -325.02 199 -324 199 C-324 198.34 -324 197.68 -324 197 C-322.35 196.67 -320.7 196.34 -319 196 C-319 195.34 -319 194.68 -319 194 C-318.01 194 -317.02 194 -316 194 C-316 193.34 -316 192.68 -316 192 C-314.35 191.67 -312.7 191.34 -311 191 C-311 190.34 -311 189.68 -311 189 C-308.09451118 186.95830515 -306.59857954 186 -303 186 C-303 185.34 -303 184.68 -303 184 C-301.35 183.67 -299.7 183.34 -298 183 C-298 182.34 -298 181.68 -298 181 C-296.68 181 -295.36 181 -294 181 C-293.67 180.01 -293.34 179.02 -293 178 C-291.68 178 -290.36 178 -289 178 C-288.79375 177.360625 -288.5875 176.72125 -288.375 176.0625 C-287 174 -287 174 -283.875 173.25 C-282.92625 173.1675 -281.9775 173.085 -281 173 C-281 172.34 -281 171.68 -281 171 C-280.34 171 -279.68 171 -279 171 C-279 170.34 -279 169.68 -279 169 C-277.35 168.67 -275.7 168.34 -274 168 C-274 167.34 -274 166.68 -274 166 C-273.01 166 -272.02 166 -271 166 C-271 165.34 -271 164.68 -271 164 C-269.35 163.67 -267.7 163.34 -266 163 C-266 162.34 -266 161.68 -266 161 C-265.01 161 -264.02 161 -263 161 C-263 160.34 -263 159.68 -263 159 C-261.35 158.67 -259.7 158.34 -258 158 C-258 157.34 -258 156.68 -258 156 C-255.09451118 153.95830515 -253.59857954 153 -250 153 C-250 152.34 -250 151.68 -250 151 C-248.68 151 -247.36 151 -246 151 C-245.67 150.01 -245.34 149.02 -245 148 C-243.68 148 -242.36 148 -241 148 C-240.79375 147.360625 -240.5875 146.72125 -240.375 146.0625 C-239 144 -239 144 -235.875 143.25 C-234.92625 143.1675 -233.9775 143.085 -233 143 C-233 142.34 -233 141.68 -233 141 C-228.61538462 138 -228.61538462 138 -226 138 C-226 137.34 -226 136.68 -226 136 C-224.02 135.67 -222.04 135.34 -220 135 C-220 134.34 -220 133.68 -220 133 C-219.34 133 -218.68 133 -218 133 C-218 132.34 -218 131.68 -218 131 C-216.02 130.67 -214.04 130.34 -212 130 C-212 129.34 -212 128.68 -212 128 C-211.34 128 -210.68 128 -210 128 C-210 127.34 -210 126.68 -210 126 C-207.525 125.505 -207.525 125.505 -205 125 C-205 124.34 -205 123.68 -205 123 C-204.01 123 -203.02 123 -202 123 C-202 122.34 -202 121.68 -202 121 C-201.360625 120.87625 -200.72125 120.7525 -200.0625 120.625 C-199.381875 120.41875 -198.70125 120.2125 -198 120 C-197.67 119.34 -197.34 118.68 -197 118 C-195.68 118 -194.36 118 -193 118 C-193 117.34 -193 116.68 -193 116 C-190.525 115.505 -190.525 115.505 -188 115 C-188 114.34 -188 113.68 -188 113 C-187.01 113 -186.02 113 -185 113 C-185 112.34 -185 111.68 -185 111 C-182.525 110.505 -182.525 110.505 -180 110 C-180 109.34 -180 108.68 -180 108 C-179.01 108 -178.02 108 -177 108 C-177 107.34 -177 106.68 -177 106 C-174.525 105.505 -174.525 105.505 -172 105 C-172 104.34 -172 103.68 -172 103 C-171.09507812 102.51080078 -171.09507812 102.51080078 -170.171875 102.01171875 C-169.37265625 101.57472656 -168.5734375 101.13773437 -167.75 100.6875 C-166.56664062 100.04361328 -166.56664062 100.04361328 -165.359375 99.38671875 C-162.96827026 98.0465516 -162.96827026 98.0465516 -160.828125 96.33203125 C-159 95 -159 95 -157 95 C-157 94.34 -157 93.68 -157 93 C-154.03 92.01 -151.06 91.02 -148 90 C-148 89.34 -148 88.68 -148 88 C-145.03 87.505 -145.03 87.505 -142 87 C-142 86.34 -142 85.68 -142 85 C-141.34 85 -140.68 85 -140 85 C-140 84.34 -140 83.68 -140 83 C-138.35 82.67 -136.7 82.34 -135 82 C-135 81.34 -135 80.68 -135 80 C-134.01 80 -133.02 80 -132 80 C-132 79.34 -132 78.68 -132 78 C-130.35 77.67 -128.7 77.34 -127 77 C-127 76.34 -127 75.68 -127 75 C-126.01 75 -125.02 75 -124 75 C-124 74.34 -124 73.68 -124 73 C-123.360625 72.87625 -122.72125 72.7525 -122.0625 72.625 C-121.381875 72.41875 -120.70125 72.2125 -120 72 C-119.67 71.34 -119.34 70.68 -119 70 C-116.06295544 67.9904432 -114.60777515 67 -111 67 C-111 66.34 -111 65.68 -111 65 C-109.68 65 -108.36 65 -107 65 C-106.67 64.01 -106.34 63.02 -106 62 C-104.68 62 -103.36 62 -102 62 C-102 61.34 -102 60.68 -102 60 C-101.01 60 -100.02 60 -99 60 C-99 59.34 -99 58.68 -99 58 C-97.35 57.67 -95.7 57.34 -94 57 C-94 56.34 -94 55.68 -94 55 C-93.01 55 -92.02 55 -91 55 C-91 54.34 -91 53.68 -91 53 C-89.35 52.67 -87.7 52.34 -86 52 C-86 51.34 -86 50.68 -86 50 C-82.63316085 47.56839395 -81.26649636 47 -77 47 C-76.67 46.01 -76.34 45.02 -76 44 C-74.0390625 42.61328125 -74.0390625 42.61328125 -71.625 41.3125 C-70.83351563 40.87550781 -70.04203125 40.43851563 -69.2265625 39.98828125 C-67 39 -67 39 -64 39 C-63.690625 38.0409375 -63.690625 38.0409375 -63.375 37.0625 C-62 35 -62 35 -58.875 34.25 C-57.92625 34.1675 -56.9775 34.085 -56 34 C-56 33.34 -56 32.68 -56 32 C-55.34 32 -54.68 32 -54 32 C-54 31.34 -54 30.68 -54 30 C-52.35 29.67 -50.7 29.34 -49 29 C-49 28.34 -49 27.68 -49 27 C-48.01 27 -47.02 27 -46 27 C-46 26.34 -46 25.68 -46 25 C-44.35 24.67 -42.7 24.34 -41 24 C-41 23.34 -41 22.68 -41 22 C-40.01 22 -39.02 22 -38 22 C-38 21.34 -38 20.68 -38 20 C-37.360625 19.87625 -36.72125 19.7525 -36.0625 19.625 C-35.381875 19.41875 -34.70125 19.2125 -34 19 C-33.67 18.34 -33.34 17.68 -33 17 C-31.68 17 -30.36 17 -29 17 C-29 16.34 -29 15.68 -29 15 C-27.35 14.67 -25.7 14.34 -24 14 C-24 13.34 -24 12.68 -24 12 C-23.01 12 -22.02 12 -21 12 C-21 11.34 -21 10.68 -21 10 C-19.35 9.67 -17.7 9.34 -16 9 C-16 8.34 -16 7.68 -16 7 C-13.09451118 4.95830515 -11.59857954 4 -8 4 C-8 3.34 -8 2.68 -8 2 C-4.77208445 -0.1519437 -3.71599191 -0.20086443 0 0 Z M-5 86 C-5 86.66 -5 87.32 -5 88 C-7.65228812 89.07525194 -10.28368454 90.09456151 -13 91 C-13 91.66 -13 92.32 -13 93 C-13.66 93 -14.32 93 -15 93 C-15 93.66 -15 94.32 -15 95 C-16.98 95.33 -18.96 95.66 -21 96 C-21 96.66 -21 97.32 -21 98 C-21.66 98 -22.32 98 -23 98 C-23 98.66 -23 99.32 -23 100 C-24.65 100.33 -26.3 100.66 -28 101 C-28 101.66 -28 102.32 -28 103 C-28.99 103 -29.98 103 -31 103 C-31 103.66 -31 104.32 -31 105 C-32.65 105.33 -34.3 105.66 -36 106 C-36 106.66 -36 107.32 -36 108 C-36.5775 108.12375 -37.155 108.2475 -37.75 108.375 C-40.02335767 109.00648824 -41.9253529 109.88858191 -44 111 C-44 111.66 -44 112.32 -44 113 C-45.32 113 -46.64 113 -48 113 C-48.33 113.66 -48.66 114.32 -49 115 C-51.0625 115.625 -51.0625 115.625 -53 116 C-53 116.66 -53 117.32 -53 118 C-55.65228812 119.07525194 -58.28368454 120.09456151 -61 121 C-61 121.66 -61 122.32 -61 123 C-63.65228812 124.07525194 -66.28368454 125.09456151 -69 126 C-69 126.66 -69 127.32 -69 128 C-69.78375 128.309375 -70.5675 128.61875 -71.375 128.9375 C-73.92330128 129.92875038 -73.92330128 129.92875038 -76 131 C-76 131.66 -76 132.32 -76 133 C-78.97 133.495 -78.97 133.495 -82 134 C-82 134.66 -82 135.32 -82 136 C-82.66 136 -83.32 136 -84 136 C-84 136.66 -84 137.32 -84 138 C-86.475 138.495 -86.475 138.495 -89 139 C-89 139.66 -89 140.32 -89 141 C-89.99 141 -90.98 141 -92 141 C-92 141.66 -92 142.32 -92 143 C-94.475 143.495 -94.475 143.495 -97 144 C-97 144.66 -97 145.32 -97 146 C-98.32 146 -99.64 146 -101 146 C-101.33 146.66 -101.66 147.32 -102 148 C-102.639375 148.144375 -103.27875 148.28875 -103.9375 148.4375 C-106.38210855 148.86165035 -106.38210855 148.86165035 -108 152 C-111.125 153.1875 -111.125 153.1875 -114 154 C-114 154.66 -114 155.32 -114 156 C-114.66 156 -115.32 156 -116 156 C-116 156.66 -116 157.32 -116 158 C-118.97 158.495 -118.97 158.495 -122 159 C-122 159.66 -122 160.32 -122 161 C-122.66 161 -123.32 161 -124 161 C-124 161.66 -124 162.32 -124 163 C-124.763125 163.12375 -125.52625 163.2475 -126.3125 163.375 C-129.20267136 163.88102792 -129.20267136 163.88102792 -132 166 C-132 166.66 -132 167.32 -132 168 C-132.72960937 168.103125 -133.45921875 168.20625 -134.2109375 168.3125 C-137.26486321 169.06528841 -139.07860619 170.1798972 -141.625 172 C-144.17796131 173.81234113 -146.00688125 175.00229375 -149 176 C-149 176.66 -149 177.32 -149 178 C-151.475 178.495 -151.475 178.495 -154 179 C-154 179.66 -154 180.32 -154 181 C-156.475 181.495 -156.475 181.495 -159 182 C-159 182.66 -159 183.32 -159 184 C-159.99 184 -160.98 184 -162 184 C-162 184.66 -162 185.32 -162 186 C-164.475 186.495 -164.475 186.495 -167 187 C-167 187.66 -167 188.32 -167 189 C-167.99 189 -168.98 189 -170 189 C-170 189.66 -170 190.32 -170 191 C-172.475 191.495 -172.475 191.495 -175 192 C-175 192.66 -175 193.32 -175 194 C-175.99 194 -176.98 194 -178 194 C-178 194.66 -178 195.32 -178 196 C-180.475 196.495 -180.475 196.495 -183 197 C-183 197.66 -183 198.32 -183 199 C-184.32 199 -185.64 199 -187 199 C-187.33 199.66 -187.66 200.32 -188 201 C-188.9590625 201.2165625 -188.9590625 201.2165625 -189.9375 201.4375 C-192.38210855 201.86165035 -192.38210855 201.86165035 -194 205 C-197.125 206.1875 -197.125 206.1875 -200 207 C-200 207.66 -200 208.32 -200 209 C-200.66 209 -201.32 209 -202 209 C-202 209.66 -202 210.32 -202 211 C-203.98 211.33 -205.96 211.66 -208 212 C-208 212.66 -208 213.32 -208 214 C-208.66 214 -209.32 214 -210 214 C-210 214.66 -210 215.32 -210 216 C-211.65 216.33 -213.3 216.66 -215 217 C-215 217.66 -215 218.32 -215 219 C-215.99 219 -216.98 219 -218 219 C-218 219.66 -218 220.32 -218 221 C-219.65 221.33 -221.3 221.66 -223 222 C-223 222.66 -223 223.32 -223 224 C-223.5775 224.12375 -224.155 224.2475 -224.75 224.375 C-227.02335767 225.00648824 -228.9253529 225.88858191 -231 227 C-231 227.66 -231 228.32 -231 229 C-232.65 229.33 -234.3 229.66 -236 230 C-236 230.66 -236 231.32 -236 232 C-237.32 232 -238.64 232 -240 232 C-240 232.66 -240 233.32 -240 234 C-241.65 234.33 -243.3 234.66 -245 235 C-245 235.66 -245 236.32 -245 237 C-245.99 237 -246.98 237 -248 237 C-248 237.66 -248 238.32 -248 239 C-249.65 239.33 -251.3 239.66 -253 240 C-253 240.66 -253 241.32 -253 242 C-253.99 242 -254.98 242 -256 242 C-256 242.66 -256 243.32 -256 244 C-257.65 244.33 -259.3 244.66 -261 245 C-261 245.66 -261 246.32 -261 247 C-261.66 247 -262.32 247 -263 247 C-263 247.66 -263 248.32 -263 249 C-264.98 249.33 -266.96 249.66 -269 250 C-269 250.66 -269 251.32 -269 252 C-269.66 252 -270.32 252 -271 252 C-271 252.66 -271 253.32 -271 254 C-272.11375 254.103125 -273.2275 254.20625 -274.375 254.3125 C-275.57125 254.539375 -276.7675 254.76625 -278 255 C-278.66 255.99 -279.32 256.98 -280 258 C-281.9453125 259.16796875 -281.9453125 259.16796875 -284.125 260.1875 C-284.84945312 260.53167969 -285.57390625 260.87585938 -286.3203125 261.23046875 C-286.87460937 261.48441406 -287.42890625 261.73835937 -288 262 C-288 262.66 -288 263.32 -288 264 C-289.65 264.33 -291.3 264.66 -293 265 C-293 265.66 -293 266.32 -293 267 C-293.99 267 -294.98 267 -296 267 C-296 267.66 -296 268.32 -296 269 C-297.65 269.33 -299.3 269.66 -301 270 C-301 270.66 -301 271.32 -301 272 C-301.5775 272.12375 -302.155 272.2475 -302.75 272.375 C-305.02335767 273.00648824 -306.9253529 273.88858191 -309 275 C-309 275.66 -309 276.32 -309 277 C-310.65 277.33 -312.3 277.66 -314 278 C-314 278.66 -314 279.32 -314 280 C-314.8971875 280.2165625 -314.8971875 280.2165625 -315.8125 280.4375 C-317.56150404 280.8872439 -319.28677023 281.42892341 -321 282 C-321 401.46 -321 520.92 -321 644 C-320.34 644 -319.68 644 -319 644 C-319 644.66 -319 645.32 -319 646 C-318.01 646 -317.02 646 -316 646 C-316 646.66 -316 647.32 -316 648 C-314.35 648.33 -312.7 648.66 -311 649 C-311 649.66 -311 650.32 -311 651 C-310.01 651 -309.02 651 -308 651 C-308 651.66 -308 652.32 -308 653 C-306.35 653.33 -304.7 653.66 -303 654 C-303 654.66 -303 655.32 -303 656 C-302.01 656 -301.02 656 -300 656 C-300 656.66 -300 657.32 -300 658 C-299.05125 658.0825 -298.1025 658.165 -297.125 658.25 C-296.09375 658.4975 -295.0625 658.745 -294 659 C-293.33333333 660.33333333 -292.66666667 661.66666667 -292 663 C-288.94091587 663.81584568 -288.94091587 663.81584568 -286 664 C-286 664.66 -286 665.32 -286 666 C-283.09451118 668.04169485 -281.59857954 669 -278 669 C-278 669.66 -278 670.32 -278 671 C-276.35 671.33 -274.7 671.66 -273 672 C-273 672.66 -273 673.32 -273 674 C-272.34 674 -271.68 674 -271 674 C-271 674.66 -271 675.32 -271 676 C-269.02 676.33 -267.04 676.66 -265 677 C-265 677.66 -265 678.32 -265 679 C-264.34 679 -263.68 679 -263 679 C-263 679.66 -263 680.32 -263 681 C-259.19572508 683.2013866 -259.19572508 683.2013866 -255 684 C-255 684.66 -255 685.32 -255 686 C-254.360625 686.12375 -253.72125 686.2475 -253.0625 686.375 C-252.381875 686.58125 -251.70125 686.7875 -251 687 C-250.67 687.66 -250.34 688.32 -250 689 C-248.68 689 -247.36 689 -246 689 C-246 689.66 -246 690.32 -246 691 C-244.35 691.33 -242.7 691.66 -241 692 C-241 692.66 -241 693.32 -241 694 C-240.01 694 -239.02 694 -238 694 C-238 694.66 -238 695.32 -238 696 C-236.35 696.33 -234.7 696.66 -233 697 C-233 697.66 -233 698.32 -233 699 C-232.01 699 -231.02 699 -230 699 C-230 699.66 -230 700.32 -230 701 C-228.35 701.33 -226.7 701.66 -225 702 C-225 702.66 -225 703.32 -225 704 C-222.09451118 706.04169485 -220.59857954 707 -217 707 C-217 707.66 -217 708.32 -217 709 C-216.34 709 -215.68 709 -215 709 C-215 709.66 -215 710.32 -215 711 C-214.05898438 711.45890625 -213.11796875 711.9178125 -212.1484375 712.390625 C-210.89051714 713.01019772 -209.63271069 713.63000177 -208.375 714.25 C-207.75753906 714.55035156 -207.14007813 714.85070312 -206.50390625 715.16015625 C-203.39673653 716.69738758 -200.60396794 718.2703226 -197.7265625 720.234375 C-195.1216982 722.27177521 -195.1216982 722.27177521 -192 722 C-192 722.66 -192 723.32 -192 724 C-190.35 724.33 -188.7 724.66 -187 725 C-187 725.66 -187 726.32 -187 727 C-186.34 727 -185.68 727 -185 727 C-185 727.66 -185 728.32 -185 729 C-181.19572508 731.2013866 -181.19572508 731.2013866 -177 732 C-177 732.66 -177 733.32 -177 734 C-173.19572508 736.2013866 -173.19572508 736.2013866 -169 737 C-169 737.66 -169 738.32 -169 739 C-168.360625 739.12375 -167.72125 739.2475 -167.0625 739.375 C-166.381875 739.58125 -165.70125 739.7875 -165 740 C-164.67 740.66 -164.34 741.32 -164 742 C-162.68 742 -161.36 742 -160 742 C-159.67 742.99 -159.34 743.98 -159 745 C-157.68 745 -156.36 745 -155 745 C-155 745.66 -155 746.32 -155 747 C-154.01 747 -153.02 747 -152 747 C-152 747.66 -152 748.32 -152 749 C-150.35 749.33 -148.7 749.66 -147 750 C-147 750.66 -147 751.32 -147 752 C-146.01 752 -145.02 752 -144 752 C-144 752.66 -144 753.32 -144 754 C-142.35 754.33 -140.7 754.66 -139 755 C-139 755.66 -139 756.32 -139 757 C-138.25234375 757.38671875 -137.5046875 757.7734375 -136.734375 758.171875 C-135.25710938 758.95304688 -135.25710938 758.95304688 -133.75 759.75 C-132.77546875 760.26046875 -131.8009375 760.7709375 -130.796875 761.296875 C-128.07265296 762.95575881 -126.22384122 764.74366005 -124 767 C-122.16312439 768.00323702 -122.16312439 768.00323702 -120.3125 768.625 C-117 770 -117 770 -116 772 C-113.88672575 772.90725434 -113.88672575 772.90725434 -111.4375 773.625 C-110.19806641 774.01558594 -110.19806641 774.01558594 -108.93359375 774.4140625 C-107.97646484 774.70410156 -107.97646484 774.70410156 -107 775 C-107 775.66 -107 776.32 -107 777 C-105.35 777.33 -103.7 777.66 -102 778 C-102 778.66 -102 779.32 -102 780 C-101.01 780 -100.02 780 -99 780 C-99 780.66 -99 781.32 -99 782 C-97.35 782.33 -95.7 782.66 -94 783 C-94 783.66 -94 784.32 -94 785 C-93.01 785 -92.02 785 -91 785 C-91 785.66 -91 786.32 -91 787 C-89.35 787.33 -87.7 787.66 -86 788 C-86 788.66 -86 789.32 -86 790 C-85.36191406 790.33773437 -84.72382813 790.67546875 -84.06640625 791.0234375 C-83.24011719 791.46945312 -82.41382813 791.91546875 -81.5625 792.375 C-80.73878906 792.81585937 -79.91507813 793.25671875 -79.06640625 793.7109375 C-77 795 -77 795 -76 797 C-74.2675 797.7425 -74.2675 797.7425 -72.5 798.5 C-69 800 -69 800 -68 802 C-65.67843403 802.40729228 -63.3431213 802.74438677 -61 803 C-61 803.66 -61 804.32 -61 805 C-60.34 805 -59.68 805 -59 805 C-59 805.66 -59 806.32 -59 807 C-57.35 807.33 -55.7 807.66 -54 808 C-54 808.66 -54 809.32 -54 810 C-51.09451118 812.04169485 -49.59857954 813 -46 813 C-46 813.66 -46 814.32 -46 815 C-44.35 815.33 -42.7 815.66 -41 816 C-41 816.66 -41 817.32 -41 818 C-40.01 818 -39.02 818 -38 818 C-38 818.66 -38 819.32 -38 820 C-36.35 820.33 -34.7 820.66 -33 821 C-33 821.66 -33 822.32 -33 823 C-32.01 823 -31.02 823 -30 823 C-30 823.66 -30 824.32 -30 825 C-28.35 825.33 -26.7 825.66 -25 826 C-25 826.66 -25 827.32 -25 828 C-24.34 828 -23.68 828 -23 828 C-23 828.66 -23 829.32 -23 830 C-21.865625 830.45375 -20.73125 830.9075 -19.5625 831.375 C-16 833 -16 833 -15 835 C-14.34 835.165 -13.68 835.33 -13 835.5 C-12.34 835.665 -11.68 835.83 -11 836 C-10.67 836.66 -10.34 837.32 -10 838 C-8.68 838 -7.36 838 -6 838 C-6 838.66 -6 839.32 -6 840 C-4.72125 840.185625 -3.4425 840.37125 -2.125 840.5625 C-1.40570313 840.66691406 -0.68640625 840.77132812 0.0546875 840.87890625 C2.08140667 841.1684297 2.08140667 841.1684297 4 840 C4 839.34 4 838.68 4 838 C4.99 838 5.98 838 7 838 C7 837.34 7 836.68 7 836 C8.65 835.67 10.3 835.34 12 835 C12 834.34 12 833.68 12 833 C12.99 833 13.98 833 15 833 C15 832.34 15 831.68 15 831 C16.65 830.67 18.3 830.34 20 830 C20 829.34 20 828.68 20 828 C21.32 828 22.64 828 24 828 C24.33 827.34 24.66 826.68 25 826 C28.21933498 824.01887078 31.22750802 822.29846281 34.75 820.9375 C37.14932063 819.93778307 38.22552838 818.85162256 40 817 C42.1875 815.8125 42.1875 815.8125 44 815 C44 814.34 44 813.68 44 813 C44.99 813 45.98 813 47 813 C47 812.34 47 811.68 47 811 C48.65 810.67 50.3 810.34 52 810 C52 809.34 52 808.68 52 808 C53.1446875 807.814375 53.1446875 807.814375 54.3125 807.625 C57.20267136 807.11897208 57.20267136 807.11897208 60 805 C60 804.34 60 803.68 60 803 C61.65 802.67 63.3 802.34 65 802 C65 801.34 65 800.68 65 800 C65.99 800 66.98 800 68 800 C68 799.34 68 798.68 68 798 C69.65 797.67 71.3 797.34 73 797 C73 796.34 73 795.68 73 795 C73.86625 794.814375 73.86625 794.814375 74.75 794.625 C77.02335767 793.99351176 78.9253529 793.11141809 81 792 C81 791.34 81 790.68 81 790 C82.32 790 83.64 790 85 790 C85.33 789.34 85.66 788.68 86 788 C86.639375 787.855625 87.27875 787.71125 87.9375 787.5625 C90.38210855 787.13834965 90.38210855 787.13834965 92 784 C94.625 782.8125 94.625 782.8125 97 782 C97 781.34 97 780.68 97 780 C97.99 780 98.98 780 100 780 C100 779.34 100 778.68 100 778 C101.65 777.67 103.3 777.34 105 777 C105 776.34 105 775.68 105 775 C105.99 775 106.98 775 108 775 C108 774.34 108 773.68 108 773 C109.65 772.67 111.3 772.34 113 772 C113 771.34 113 770.68 113 770 C113.99 770 114.98 770 116 770 C116 769.34 116 768.68 116 768 C117.65 767.67 119.3 767.34 121 767 C121 766.34 121 765.68 121 765 C121.86625 764.814375 121.86625 764.814375 122.75 764.625 C125.02335767 763.99351176 126.9253529 763.11141809 129 762 C129 761.34 129 760.68 129 760 C130.65 759.67 132.3 759.34 134 759 C134 758.34 134 757.68 134 757 C135.32 757 136.64 757 138 757 C138.33 756.34 138.66 755.68 139 755 C141.0625 754.375 141.0625 754.375 143 754 C143 753.34 143 752.68 143 752 C143.99 752 144.98 752 146 752 C146 751.34 146 750.68 146 750 C147.65 749.67 149.3 749.34 151 749 C151 748.34 151 747.68 151 747 C151.66 747 152.32 747 153 747 C153 746.34 153 745.68 153 745 C154.98 744.67 156.96 744.34 159 744 C159 743.34 159 742.68 159 742 C159.66 742 160.32 742 161 742 C161 741.34 161 740.68 161 740 C162.65 739.67 164.3 739.34 166 739 C166 738.34 166 737.68 166 737 C166.99 737 167.98 737 169 737 C169 736.34 169 735.68 169 735 C170.65 734.67 172.3 734.34 174 734 C174 733.34 174 732.68 174 732 C174.86625 731.814375 174.86625 731.814375 175.75 731.625 C178.02335767 730.99351176 179.9253529 730.11141809 182 729 C182 728.34 182 727.68 182 727 C183.32 727 184.64 727 186 727 C186.33 726.34 186.66 725.68 187 725 C189.0625 724.375 189.0625 724.375 191 724 C191 723.34 191 722.68 191 722 C193.65228812 720.92474806 196.28368454 719.90543849 199 719 C199 718.34 199 717.68 199 717 C201.65228812 715.92474806 204.28368454 714.90543849 207 714 C207 713.34 207 712.68 207 712 C208.65 711.67 210.3 711.34 212 711 C212 710.34 212 709.68 212 709 C212.66 709 213.32 709 214 709 C214 708.34 214 707.68 214 707 C215.98 706.67 217.96 706.34 220 706 C220 705.34 220 704.68 220 704 C220.66 704 221.32 704 222 704 C222 703.34 222 702.68 222 702 C223.65 701.67 225.3 701.34 227 701 C227 700.34 227 699.68 227 699 C227.86625 698.814375 227.86625 698.814375 228.75 698.625 C231.02335767 697.99351176 232.9253529 697.11141809 235 696 C235 695.34 235 694.68 235 694 C236.32 694 237.64 694 239 694 C239 693.34 239 692.68 239 692 C240.65 691.67 242.3 691.34 244 691 C244 690.34 244 689.68 244 689 C244.99 689 245.98 689 247 689 C247 688.34 247 687.68 247 687 C248.65 686.67 250.3 686.34 252 686 C252 685.34 252 684.68 252 684 C252.99 684 253.98 684 255 684 C255 683.34 255 682.68 255 682 C256.65 681.67 258.3 681.34 260 681 C260 680.34 260 679.68 260 679 C261.32 679 262.64 679 264 679 C264.33 678.34 264.66 677.68 265 677 C268.21933498 675.01887078 271.22750802 673.29846281 274.75 671.9375 C277.00385525 671.17876273 277.00385525 671.17876273 278.25390625 669.6640625 C281.47608459 666.59326166 285.60429785 664.75919514 289.48046875 662.62109375 C290.31191406 662.08613281 291.14335938 661.55117188 292 661 C292 660.34 292 659.68 292 659 C293.98 658.67 295.96 658.34 298 658 C298 657.34 298 656.68 298 656 C298.66 656 299.32 656 300 656 C300 655.34 300 654.68 300 654 C301.65 653.67 303.3 653.34 305 653 C305 652.34 305 651.68 305 651 C305.99 651 306.98 651 308 651 C308 650.34 308 649.68 308 649 C309.65 648.67 311.3 648.34 313 648 C313 647.34 313 646.68 313 646 C313.8971875 645.814375 313.8971875 645.814375 314.8125 645.625 C317.26231348 645.04524015 317.26231348 645.04524015 320 643 C320.4526382 640.32772659 320.4526382 640.32772659 320.36914349 637.13165092 C320.3781032 635.24464417 320.3781032 635.24464417 320.38724393 633.31951606 C320.37868367 631.91050866 320.36984686 630.50150291 320.36076355 629.09249878 C320.36207064 627.60584286 320.36469528 626.1191876 320.36853105 624.63253605 C320.37526699 620.53240051 320.36320093 616.43249825 320.34819686 612.33239245 C320.33528531 607.91657163 320.33962249 603.5007648 320.34190369 599.08493042 C320.34347952 591.42925759 320.33403798 583.77366125 320.31719017 576.11800766 C320.29284667 565.04912289 320.28499967 553.98027524 320.2812262 542.9113666 C320.2746544 524.95439919 320.2546735 506.99747259 320.22631836 489.04052734 C320.19879662 471.5932638 320.17755382 454.14601133 320.16479492 436.69873047 C320.16361267 435.08654103 320.16361267 435.08654103 320.16240653 433.4417821 C320.15849152 428.05005779 320.15470037 422.6583334 320.15097082 417.26660895 C320.11985223 372.51104437 320.06699664 327.75552429 320 283 C318.35 282.67 316.7 282.34 315 282 C315 281.34 315 280.68 315 280 C314.34 280 313.68 280 313 280 C313 279.34 313 278.68 313 278 C311.02 277.67 309.04 277.34 307 277 C307 276.34 307 275.68 307 275 C306.0409375 274.814375 306.0409375 274.814375 305.0625 274.625 C304.381875 274.41875 303.70125 274.2125 303 274 C302.67 273.34 302.34 272.68 302 272 C300.68 272 299.36 272 298 272 C298 271.34 298 270.68 298 270 C295.09451118 267.95830515 293.59857954 267 290 267 C290 266.34 290 265.68 290 265 C288.35 264.67 286.7 264.34 285 264 C285 263.34 285 262.68 285 262 C284.01 262 283.02 262 282 262 C282 261.34 282 260.68 282 260 C280.35 259.67 278.7 259.34 277 259 C277 258.34 277 257.68 277 257 C275.56705502 256.15885829 274.12845595 255.32734313 272.6875 254.5 C271.88699219 254.0359375 271.08648438 253.571875 270.26171875 253.09375 C267.9685882 251.78232114 267.9685882 251.78232114 265 252 C264.67 251.01 264.34 250.02 264 249 C262.68 249 261.36 249 260 249 C259.67 247.68 259.34 246.36 259 245 C256.69 244.67 254.38 244.34 252 244 C252 243.34 252 242.68 252 242 C251.34 242 250.68 242 250 242 C250 241.34 250 240.68 250 240 C248.02 239.67 246.04 239.34 244 239 C244 238.34 244 237.68 244 237 C243.34 237 242.68 237 242 237 C242 236.34 242 235.68 242 235 C240.865625 234.54625 239.73125 234.0925 238.5625 233.625 C235 232 235 232 234 230 C233.34 229.835 232.68 229.67 232 229.5 C231.34 229.335 230.68 229.17 230 229 C229.67 228.34 229.34 227.68 229 227 C227.29192442 226.24450503 225.5812231 225.49373904 223.8515625 224.7890625 C217.55227882 222.10455764 217.55227882 222.10455764 216 219 C214.68 219 213.36 219 212 219 C212 218.34 212 217.68 212 217 C210.35 216.67 208.7 216.34 207 216 C207 215.34 207 214.68 207 214 C206.01 214 205.02 214 204 214 C204 213.34 204 212.68 204 212 C201.525 211.505 201.525 211.505 199 211 C199 210.34 199 209.68 199 209 C198.01 209 197.02 209 196 209 C196 208.34 196 207.68 196 207 C195.0409375 206.814375 195.0409375 206.814375 194.0625 206.625 C193.381875 206.41875 192.70125 206.2125 192 206 C191.67 205.34 191.34 204.68 191 204 C189.68 204 188.36 204 187 204 C187 203.34 187 202.68 187 202 C185.35 201.67 183.7 201.34 182 201 C182 200.34 182 199.68 182 199 C181.01 199 180.02 199 179 199 C179 198.34 179 197.68 179 197 C177.35 196.67 175.7 196.34 174 196 C174 195.34 174 194.68 174 194 C173.01 194 172.02 194 171 194 C171 193.34 171 192.68 171 192 C169.35 191.67 167.7 191.34 166 191 C166 190.34 166 189.68 166 189 C165.34 189 164.68 189 164 189 C164 188.34 164 187.68 164 187 C162.02 186.67 160.04 186.34 158 186 C158 185.34 158 184.68 158 184 C157.34 184 156.68 184 156 184 C156 183.34 156 182.68 156 182 C154.98550781 181.59136719 153.97101563 181.18273437 152.92578125 180.76171875 C148.45907 178.84837807 144.53912684 176.32634321 140.45507812 173.69726562 C137.46454378 171.64525291 137.46454378 171.64525291 134 171 C134 170.34 134 169.68 134 169 C132.02 168.67 130.04 168.34 128 168 C128 167.34 128 166.68 128 166 C127.34 166 126.68 166 126 166 C126 165.34 126 164.68 126 164 C124.02 163.67 122.04 163.34 120 163 C120 162.34 120 161.68 120 161 C119.34 161 118.68 161 118 161 C118 160.34 118 159.68 118 159 C116.35 158.67 114.7 158.34 113 158 C113 157.34 113 156.68 113 156 C112.01 156 111.02 156 110 156 C110 155.34 110 154.68 110 154 C109.360625 153.87625 108.72125 153.7525 108.0625 153.625 C107.381875 153.41875 106.70125 153.2125 106 153 C105.67 152.34 105.34 151.68 105 151 C103.68 151 102.36 151 101 151 C101 150.34 101 149.68 101 149 C99.35 148.67 97.7 148.34 96 148 C96 147.34 96 146.68 96 146 C95.01 146 94.02 146 93 146 C93 145.34 93 144.68 93 144 C91.35 143.67 89.7 143.34 88 143 C88 142.34 88 141.68 88 141 C87.01 141 86.02 141 85 141 C85 140.34 85 139.68 85 139 C83.35 138.67 81.7 138.34 80 138 C80 137.34 80 136.68 80 136 C79.01 136 78.02 136 77 136 C77 135.34 77 134.68 77 134 C75.35 133.67 73.7 133.34 72 133 C72 132.34 72 131.68 72 131 C71.360625 130.87625 70.72125 130.7525 70.0625 130.625 C69.381875 130.41875 68.70125 130.2125 68 130 C67.67 129.34 67.34 128.68 67 128 C65.68 128 64.36 128 63 128 C62.67 127.01 62.34 126.02 62 125 C60.01829207 123.53927361 60.01829207 123.53927361 57.625 122.3125 C56.83351563 121.87550781 56.04203125 121.43851563 55.2265625 120.98828125 C52.9490014 119.79715396 52.9490014 119.79715396 50 120 C50 119.34 50 118.68 50 118 C49.34 118 48.68 118 48 118 C48 117.34 48 116.68 48 116 C46.35 115.67 44.7 115.34 43 115 C43 114.34 43 113.68 43 113 C42.01 113 41.02 113 40 113 C40 112.34 40 111.68 40 111 C38.35 110.67 36.7 110.34 35 110 C35 109.34 35 108.68 35 108 C34.01 108 33.02 108 32 108 C32 107.34 32 106.68 32 106 C30.35 105.67 28.7 105.34 27 105 C27 104.34 27 103.68 27 103 C26.01 103 25.02 103 24 103 C24 102.34 24 101.68 24 101 C22.35 100.67 20.7 100.34 19 100 C19 99.34 19 98.68 19 98 C17.68 98 16.36 98 15 98 C14.67 97.01 14.34 96.02 14 95 C12.68 95 11.36 95 10 95 C10 94.34 10 93.68 10 93 C9.01 93 8.02 93 7 93 C7 92.34 7 91.68 7 91 C5.35 90.67 3.7 90.34 2 90 C2 89.34 2 88.68 2 88 C1.34 88 0.68 88 0 88 C0 87.34 0 86.68 0 86 C-1.65 86 -3.3 86 -5 86 Z " fill="#FEFEFE" transform="translate(500,34)"/>
<path d="M0 0 C1.98 0 3.96 0 6 0 C6 0.66 6 1.32 6 2 C6.66 2 7.32 2 8 2 C8 2.66 8 3.32 8 4 C9.65 4.33 11.3 4.66 13 5 C13 5.66 13 6.32 13 7 C13.99 7 14.98 7 16 7 C16 7.66 16 8.32 16 9 C18.475 9.495 18.475 9.495 21 10 C21 10.66 21 11.32 21 12 C22.32 12 23.64 12 25 12 C25 12.66 25 13.32 25 14 C27.475 14.495 27.475 14.495 30 15 C30 15.66 30 16.32 30 17 C30.5775 17.12375 31.155 17.2475 31.75 17.375 C34.02335767 18.00648824 35.9253529 18.88858191 38 20 C38 20.66 38 21.32 38 22 C39.65 22.33 41.3 22.66 43 23 C43 23.66 43 24.32 43 25 C43.99 25 44.98 25 46 25 C46 25.66 46 26.32 46 27 C47.65 27.33 49.3 27.66 51 28 C51 28.66 51 29.32 51 30 C51.99 30 52.98 30 54 30 C54 30.66 54 31.32 54 32 C55.65 32.33 57.3 32.66 59 33 C59 33.66 59 34.32 59 35 C59.66 35 60.32 35 61 35 C61 35.66 61 36.32 61 37 C61.94875 37.0825 62.8975 37.165 63.875 37.25 C64.90625 37.4975 65.9375 37.745 67 38 C67.69937532 39.31647119 68.36729133 40.65022151 69 42 C71.55519921 42.81171228 71.55519921 42.81171228 74 43 C74 43.66 74 44.32 74 45 C75.32 45 76.64 45 78 45 C78 45.66 78 46.32 78 47 C78.86625 47.185625 78.86625 47.185625 79.75 47.375 C82.05099641 48.01416567 83.94109615 48.79305636 86 50 C86.33 50.66 86.66 51.32 87 52 C89.02463255 52.65213292 89.02463255 52.65213292 91 53 C91.495 54.98 91.495 54.98 92 57 C93.65 57.33 95.3 57.66 97 58 C97 58.66 97 59.32 97 60 C97.66 60 98.32 60 99 60 C99 60.66 99 61.32 99 62 C99.66 62 100.32 62 101 62 C101 184.1 101 306.2 101 432 C100.34 432 99.68 432 99 432 C99 432.66 99 433.32 99 434 C98.01 434 97.02 434 96 434 C96 434.66 96 435.32 96 436 C94.35 436.33 92.7 436.66 91 437 C91 437.66 91 438.32 91 439 C88.09451118 441.04169485 86.59857954 442 83 442 C83 442.66 83 443.32 83 444 C81.35 444.33 79.7 444.66 78 445 C78 445.66 78 446.32 78 447 C77.34 447 76.68 447 76 447 C76 447.66 76 448.32 76 449 C70.25 452 70.25 452 68 452 C68 452.66 68 453.32 68 454 C67.360625 454.12375 66.72125 454.2475 66.0625 454.375 C65.0415625 454.684375 65.0415625 454.684375 64 455 C63.67 455.66 63.34 456.32 63 457 C61.68 457 60.36 457 59 457 C59 457.66 59 458.32 59 459 C57.35 459.33 55.7 459.66 54 460 C54 460.66 54 461.32 54 462 C53.01 462 52.02 462 51 462 C51 462.66 51 463.32 51 464 C49.35 464.33 47.7 464.66 46 465 C46 465.66 46 466.32 46 467 C45.34 467 44.68 467 44 467 C44 467.66 44 468.32 44 469 C42.02 469.33 40.04 469.66 38 470 C38 470.66 38 471.32 38 472 C37.34 472 36.68 472 36 472 C36 472.66 36 473.32 36 474 C34.35 474.33 32.7 474.66 31 475 C31 475.66 31 476.32 31 477 C30.01 477 29.02 477 28 477 C28 477.66 28 478.32 28 479 C26.35 479.33 24.7 479.66 23 480 C23 480.66 23 481.32 23 482 C20.09451118 484.04169485 18.59857954 485 15 485 C15 485.66 15 486.32 15 487 C13.68 487 12.36 487 11 487 C10.67 487.99 10.34 488.98 10 490 C8.68 490 7.36 490 6 490 C5.67 490.99 5.34 491.98 5 493 C3.35 492.67 1.7 492.34 0 492 C0 329.64 0 167.28 0 0 Z " fill="#FEFEFE" transform="translate(580,251)"/>
<path d="M0 0 C1.08146103 4.37804904 1.13967755 8.64250435 1.12584114 13.12325859 C1.12729458 13.94072675 1.12874802 14.75819492 1.13024551 15.60043484 C1.13390715 18.35122603 1.13041828 21.10196186 1.12698364 23.85275269 C1.1281354 25.84023318 1.12972329 27.82771346 1.13171089 29.8151933 C1.1358968 35.28594657 1.13381681 40.75668247 1.13072467 46.22743583 C1.12846778 52.12392531 1.13195165 58.02041175 1.13470459 63.91690063 C1.13890074 74.804052 1.13852793 85.69119737 1.13579312 96.57834905 C1.13327886 106.63674792 1.13262026 116.69514474 1.13381577 126.75354385 C1.13389215 127.42040343 1.13396854 128.08726301 1.13404724 128.77433045 C1.13435857 131.4812638 1.13467697 134.18819715 1.135007 136.8951305 C1.13806715 162.29729151 1.13529084 187.69944897 1.1299101 213.10160943 C1.12516546 235.67239647 1.12558808 258.24317786 1.13037109 280.81396484 C1.13572557 306.16626005 1.13784905 331.51855213 1.13475883 356.87084782 C1.13443811 359.57350675 1.13412527 362.27616568 1.13381577 364.97882462 C1.13373669 365.64429868 1.13365761 366.30977275 1.13357614 366.9954127 C1.13243849 377.04636969 1.13376929 387.09732442 1.13629532 397.1482811 C1.1390977 408.57782186 1.13834579 420.00735574 1.13301457 431.43689571 C1.13038336 437.27056911 1.12936273 443.10423104 1.13266373 448.93790436 C1.13563861 454.27593245 1.13401387 459.61393843 1.12868617 464.95196451 C1.12756709 466.88530479 1.12814195 468.81864693 1.13056196 470.75198601 C1.13359553 473.3763704 1.1304907 476.00067872 1.12584114 478.62505913 C1.12818231 479.3785353 1.13052347 480.13201147 1.13293558 480.90832025 C1.11705144 485.38361743 0.72772693 489.59850915 0 494 C-2.3431213 493.74438677 -4.67843403 493.40729228 -7 493 C-7.33 492.34 -7.66 491.68 -8 491 C-10.30965848 489.94647157 -12.6429774 488.94280904 -15 488 C-15 487.34 -15 486.68 -15 486 C-16.65 485.67 -18.3 485.34 -20 485 C-20 484.34 -20 483.68 -20 483 C-20.99 483 -21.98 483 -23 483 C-23 482.34 -23 481.68 -23 481 C-24.65 480.67 -26.3 480.34 -28 480 C-28 479.34 -28 478.68 -28 478 C-28.99 478 -29.98 478 -31 478 C-31 477.34 -31 476.68 -31 476 C-31.78375 475.690625 -32.5675 475.38125 -33.375 475.0625 C-36 474 -36 474 -38 473 C-38 472.34 -38 471.68 -38 471 C-39.65 470.67 -41.3 470.34 -43 470 C-43 469.34 -43 468.68 -43 468 C-43.99 468 -44.98 468 -46 468 C-46 467.34 -46 466.68 -46 466 C-47.65 465.67 -49.3 465.34 -51 465 C-51 464.34 -51 463.68 -51 463 C-51.99 463 -52.98 463 -54 463 C-54 462.34 -54 461.68 -54 461 C-55.98 460.67 -57.96 460.34 -60 460 C-60.33 458.68 -60.66 457.36 -61 456 C-63.31 455.67 -65.62 455.34 -68 455 C-68 454.34 -68 453.68 -68 453 C-68.66 453 -69.32 453 -70 453 C-70 452.34 -70 451.68 -70 451 C-71.65 450.67 -73.3 450.34 -75 450 C-75 449.34 -75 448.68 -75 448 C-75.99 448 -76.98 448 -78 448 C-78 447.34 -78 446.68 -78 446 C-79.65 445.67 -81.3 445.34 -83 445 C-83 444.34 -83 443.68 -83 443 C-83.5775 442.87625 -84.155 442.7525 -84.75 442.625 C-87.02335767 441.99351176 -88.9253529 441.11141809 -91 440 C-91 439.34 -91 438.68 -91 438 C-92.65 437.67 -94.3 437.34 -96 437 C-96 436.34 -96 435.68 -96 435 C-96.66 435 -97.32 435 -98 435 C-99.37761361 432.24477279 -99.12801723 430.03801475 -99.13142776 426.95262241 C-99.13526891 425.65466726 -99.13911005 424.3567121 -99.1430676 423.01942497 C-99.14228726 421.56532318 -99.14140846 420.11122143 -99.14044189 418.65711975 C-99.14302397 417.12310522 -99.14603669 415.58909136 -99.1494453 414.05507845 C-99.1575369 409.82400016 -99.15930606 405.59293882 -99.16004276 401.36185372 C-99.16188954 396.80486539 -99.1694349 392.24788593 -99.17617798 387.69090271 C-99.1897765 377.72006453 -99.1957882 367.74923036 -99.20018864 357.77838445 C-99.20294813 351.55737361 -99.2071849 345.33636433 -99.21169281 339.11535454 C-99.22388677 321.90451816 -99.23418628 304.69368305 -99.2375679 287.48284245 C-99.23778747 286.38071599 -99.23800703 285.27858953 -99.23823325 284.1430653 C-99.23845153 283.03824723 -99.23866981 281.93342915 -99.2388947 280.79513174 C-99.23933817 278.55621087 -99.23978474 276.31729001 -99.24023438 274.07836914 C-99.2404558 272.96777838 -99.24067723 271.85718762 -99.24090537 270.71294259 C-99.24485581 252.70580158 -99.26231676 234.69870098 -99.2855939 216.69157559 C-99.30927766 198.22144349 -99.32176837 179.75133168 -99.32293582 161.28118414 C-99.32385419 150.90374803 -99.32964709 140.52636459 -99.34775543 130.14894295 C-99.36311624 121.31471439 -99.36830072 112.48055477 -99.36001733 103.6463154 C-99.35609668 99.13560937 -99.35710894 94.62504232 -99.37107468 90.11435318 C-99.38372923 85.98960158 -99.38269124 81.8650946 -99.37048396 77.74034374 C-99.36851221 76.24372248 -99.37167283 74.74708439 -99.38032833 73.25048686 C-99.39130745 71.22475864 -99.38220101 69.1989507 -99.3719368 67.17321873 C-99.37253389 66.04539433 -99.37313097 64.91756993 -99.37374616 63.75556904 C-99 61 -99 61 -97.66425395 59.11417383 C-96 58 -96 58 -93 58 C-93 57.34 -93 56.68 -93 56 C-91.68 56 -90.36 56 -89 56 C-88.67 55.01 -88.34 54.02 -88 53 C-86.68 53 -85.36 53 -84 53 C-83.67 51.68 -83.34 50.36 -83 49 C-80.525 48.505 -80.525 48.505 -78 48 C-78 47.34 -78 46.68 -78 46 C-75.09451118 43.95830515 -73.59857954 43 -70 43 C-70 42.34 -70 41.68 -70 41 C-68.68 41 -67.36 41 -66 41 C-65.67 40.01 -65.34 39.02 -65 38 C-63.68 38 -62.36 38 -61 38 C-60.79375 37.360625 -60.5875 36.72125 -60.375 36.0625 C-59 34 -59 34 -55.875 33.25 C-54.92625 33.1675 -53.9775 33.085 -53 33 C-53 32.34 -53 31.68 -53 31 C-52.34 31 -51.68 31 -51 31 C-51 30.34 -51 29.68 -51 29 C-49.35 28.67 -47.7 28.34 -46 28 C-46 27.34 -46 26.68 -46 26 C-45.01 26 -44.02 26 -43 26 C-43 25.34 -43 24.68 -43 24 C-41.35 23.67 -39.7 23.34 -38 23 C-38 22.34 -38 21.68 -38 21 C-37.01 21 -36.02 21 -35 21 C-35 20.34 -35 19.68 -35 19 C-33.35 18.67 -31.7 18.34 -30 18 C-30 17.34 -30 16.68 -30 16 C-27.525 15.505 -27.525 15.505 -25 15 C-25 14.34 -25 13.68 -25 13 C-24.01 13 -23.02 13 -22 13 C-22 12.34 -22 11.68 -22 11 C-19.525 10.505 -19.525 10.505 -17 10 C-17 9.34 -17 8.68 -17 8 C-13.63316085 5.56839395 -12.26649636 5 -8 5 C-8 4.34 -8 3.68 -8 3 C-7.01 3 -6.02 3 -5 3 C-5 2.34 -5 1.68 -5 1 C-3 0 -3 0 0 0 Z " fill="#FEFEFE" transform="translate(416,250)"/>
<path d="M0 0 C27.39 0 54.78 0 83 0 C83.11293579 58.29540634 83.20250615 116.59079032 83.25532665 174.8862838 C83.26156353 181.76216141 83.26804627 188.63803877 83.2746582 195.51391602 C83.275312 196.19816169 83.27596579 196.88240737 83.2766394 197.58738776 C83.29795996 219.78028114 83.33552677 241.97311102 83.3814861 264.16596591 C83.4299503 287.61085729 83.45997144 311.05569563 83.47044247 334.50064105 C83.47731717 348.55182765 83.49906207 362.60283199 83.53958233 376.65396252 C83.56592835 386.27774886 83.57401952 395.90144042 83.56750689 405.52526025 C83.56429129 411.08511365 83.56936196 416.64464768 83.59602737 422.20444489 C83.62023129 427.28788436 83.62167178 432.37078753 83.60449447 437.45425089 C83.60236929 439.29952487 83.60882048 441.14483135 83.62441591 442.99004064 C83.6443015 445.48672892 83.63378307 447.98144687 83.61523914 450.47810078 C83.62837421 451.20500995 83.64150928 451.93191912 83.65504238 452.68085584 C83.62099248 454.69069511 83.62099248 454.69069511 83 458 C80.13781497 460.39853607 78.73853481 461 75 461 C75 461.66 75 462.32 75 463 C70.61538462 466 70.61538462 466 68 466 C68 466.66 68 467.32 68 468 C67.01 468 66.02 468 65 468 C65 468.66 65 469.32 65 470 C63.35 470.33 61.7 470.66 60 471 C60 471.66 60 472.32 60 473 C57.09451118 475.04169485 55.59857954 476 52 476 C52 476.66 52 477.32 52 478 C50.35 478.33 48.7 478.66 47 479 C47 479.66 47 480.32 47 481 C45.68 481 44.36 481 43 481 C43 481.66 43 482.32 43 483 C41.35 482.67 39.7 482.34 38 482 C37.505 480.515 37.505 480.515 37 479 C35.35 478.67 33.7 478.34 32 478 C32 477.34 32 476.68 32 476 C31.34 475.938125 30.68 475.87625 30 475.8125 C25.8783325 474.69621505 22.34249498 472.66238434 19 470 C19 469.34 19 468.68 19 468 C17.68 468 16.36 468 15 468 C14.67 467.34 14.34 466.68 14 466 C11.97536745 465.34786708 11.97536745 465.34786708 10 465 C9.67 463.68 9.34 462.36 9 461 C7.35 460.67 5.7 460.34 4 460 C4 459.34 4 458.68 4 458 C2.68 458 1.36 458 0 458 C-1.31344744 437.61043692 -1.14375335 417.20517678 -1.13072467 396.78421688 C-1.12844063 391.4784476 -1.13196476 386.17268148 -1.13470459 380.86691284 C-1.13912756 370.50725825 -1.13820189 360.14761095 -1.13529195 349.78795609 C-1.13302664 341.3731657 -1.13273026 332.95837734 -1.13381577 324.54358673 C-1.133969 323.34263818 -1.13412223 322.14168962 -1.13428011 320.90434869 C-1.13459985 318.4643359 -1.13492406 316.02432311 -1.1352527 313.58431032 C-1.13809666 290.7667283 -1.13483622 267.9491503 -1.12945233 245.13156894 C-1.12497382 225.54343979 -1.12577091 205.95531655 -1.13037109 186.3671875 C-1.13571631 163.59603473 -1.1378341 140.82488547 -1.13475883 118.05373216 C-1.13444028 115.62918743 -1.13412591 113.20464269 -1.13381577 110.78009796 C-1.13366149 109.58724526 -1.13350721 108.39439256 -1.13334826 107.1653928 C-1.1324838 98.7482793 -1.13394423 90.33116803 -1.13629532 81.91405487 C-1.1390924 71.6760414 -1.13835651 61.43803561 -1.13301457 51.20002303 C-1.13037809 45.97443045 -1.12937178 40.7488507 -1.13266373 35.52325821 C-1.13562705 30.74746407 -1.13403332 25.97169472 -1.12868617 21.19590285 C-1.12756229 19.46167789 -1.12815254 17.72745087 -1.13056196 15.99322721 C-1.13357022 13.64964821 -1.13051703 11.30615598 -1.12584114 8.96258163 C-1.12567879 7.65687769 -1.12551644 6.35117374 -1.12534916 5.00590301 C-1 2 -1 2 0 0 Z " fill="#FEFEFE" transform="translate(457,313)"/>
<path d="M0 0 C0 0.66 0 1.32 0 2 C1.11375 2.061875 2.2275 2.12375 3.375 2.1875 C8.82392948 2.83199704 13.26109941 5.36835643 18 8 C18 8.66 18 9.32 18 10 C18.66 10 19.32 10 20 10 C21.625 11.375 21.625 11.375 23 13 C23 13.66 23 14.32 23 15 C23.66 15 24.32 15 25 15 C26.625 16.375 26.625 16.375 28 18 C28 18.66 28 19.32 28 20 C28.66 20 29.32 20 30 20 C30.495 22.475 30.495 22.475 31 25 C31.66 25 32.32 25 33 25 C33 25.99 33 26.98 33 28 C33.66 28 34.32 28 35 28 C35.495 31.465 35.495 31.465 36 35 C36.66 35 37.32 35 38 35 C38 37.31 38 39.62 38 42 C38.66 42 39.32 42 40 42 C40 50.58 40 59.16 40 68 C39.34 68 38.68 68 38 68 C38.0825 68.804375 38.165 69.60875 38.25 70.4375 C37.86909726 75.86536404 35.40256402 80.19487196 33 85 C32.34 85 31.68 85 31 85 C30.9175 85.61875 30.835 86.2375 30.75 86.875 C30 89 30 89 28 90.0625 C27.34 90.371875 26.68 90.68125 26 91 C25.505 92.485 25.505 92.485 25 94 C24.34 94 23.68 94 23 94 C23 94.66 23 95.32 23 96 C22.34 96 21.68 96 21 96 C20.505 97.485 20.505 97.485 20 99 C19.34 99 18.68 99 18 99 C18 99.66 18 100.32 18 101 C17.01 101 16.02 101 15 101 C15 101.66 15 102.32 15 103 C11.535 103.495 11.535 103.495 8 104 C8 104.66 8 105.32 8 106 C7.01 106 6.02 106 5 106 C5 106.66 5 107.32 5 108 C3.73542969 108.13277344 2.47085938 108.26554687 1.16796875 108.40234375 C-0.49220625 108.58055463 -2.15236148 108.75894963 -3.8125 108.9375 C-4.64587891 109.02451172 -5.47925781 109.11152344 -6.33789062 109.20117188 C-7.14033203 109.28818359 -7.94277344 109.37519531 -8.76953125 109.46484375 C-9.50792236 109.543396 -10.24631348 109.62194824 -11.00708008 109.70288086 C-13.20269378 109.97151996 -13.20269378 109.97151996 -16 111 C-16 110.34 -16 109.68 -16 109 C-16.80824219 109.01160156 -17.61648438 109.02320313 -18.44921875 109.03515625 C-19.51785156 109.04417969 -20.58648437 109.05320312 -21.6875 109.0625 C-23.27111328 109.07990234 -23.27111328 109.07990234 -24.88671875 109.09765625 C-27.72410262 109.00865425 -30.2438919 108.64939838 -33 108 C-33 107.34 -33 106.68 -33 106 C-34.65 106 -36.3 106 -38 106 C-38 105.34 -38 104.68 -38 104 C-39.65 103.67 -41.3 103.34 -43 103 C-43 102.34 -43 101.68 -43 101 C-43.99 101 -44.98 101 -46 101 C-46 100.34 -46 99.68 -46 99 C-47.32 98.67 -48.64 98.34 -50 98 C-50.33 96.68 -50.66 95.36 -51 94 C-51.598125 93.896875 -52.19625 93.79375 -52.8125 93.6875 C-55.31258286 92.90175967 -56.37535082 92.03081147 -58 90 C-58 89.34 -58 88.68 -58 88 C-58.66 88 -59.32 88 -60 88 C-60.495 85.525 -60.495 85.525 -61 83 C-61.66 83 -62.32 83 -63 83 C-66.42857143 74.57142857 -66.42857143 74.57142857 -66 70 C-66.66 70 -67.32 70 -68 70 C-68.06058594 69.36191406 -68.12117188 68.72382813 -68.18359375 68.06640625 C-68.26738281 67.24011719 -68.35117187 66.41382813 -68.4375 65.5625 C-68.51871094 64.73878906 -68.59992188 63.91507812 -68.68359375 63.06640625 C-68.78930815 61.01337975 -68.78930815 61.01337975 -70 60 C-70.09851171 58.16884117 -70.12972629 56.33380067 -70.125 54.5 C-70.12757813 53.4996875 -70.13015625 52.499375 -70.1328125 51.46875 C-70 49 -70 49 -69 48 C-68.76924918 46.65252916 -68.58846937 45.29622435 -68.4375 43.9375 C-68.2209375 41.9884375 -68.2209375 41.9884375 -68 40 C-67.34 40 -66.68 40 -66 40 C-65.67 36.7 -65.34 33.4 -65 30 C-64.34 30 -63.68 30 -63 30 C-63 29.01 -63 28.02 -63 27 C-62.34 27 -61.68 27 -61 27 C-60.67 25.35 -60.34 23.7 -60 22 C-59.34 22 -58.68 22 -58 22 C-58 21.34 -58 20.68 -58 20 C-57.34 20 -56.68 20 -56 20 C-55.67 18.35 -55.34 16.7 -55 15 C-54.34 15 -53.68 15 -53 15 C-53 14.34 -53 13.68 -53 13 C-51.35 12.67 -49.7 12.34 -48 12 C-48 11.34 -48 10.68 -48 10 C-47.34 10 -46.68 10 -46 10 C-46 9.34 -46 8.68 -46 8 C-44.35 7.67 -42.7 7.34 -41 7 C-41 6.34 -41 5.68 -41 5 C-32.57142857 1.57142857 -32.57142857 1.57142857 -28 2 C-28 1.34 -28 0.68 -28 0 C-18.52388303 -1.16656743 -9.47041213 -0.78118882 0 0 Z " fill="#FEFEFE" transform="translate(512,170)"/>
</svg>
